<svg width="154" height="22" viewBox="0 0 154 22" fill="none" xmlns="http://www.w3.org/2000/svg">
<path d="M0.624 22V1.84H19.104V4.864H3.676V10.408H16.08V13.432H3.676V22H0.624ZM24.3304 22C23.6584 22 23.0517 21.832 22.5104 21.496C21.969 21.16 21.5304 20.7213 21.1944 20.18C20.8584 19.6387 20.6904 19.032 20.6904 18.36V0.439999H23.7144V18.276C23.7144 18.4627 23.7797 18.6307 23.9104 18.78C24.0597 18.9107 24.2277 18.976 24.4144 18.976H27.3544V22H24.3304ZM33.1077 22C32.4357 22 31.8197 21.832 31.2597 21.496C30.7184 21.16 30.2797 20.7213 29.9437 20.18C29.6264 19.6387 29.4677 19.032 29.4677 18.36V12.368H42.9357V9.484C42.9357 9.29733 42.8704 9.13867 42.7397 9.008C42.6091 8.85867 42.4504 8.784 42.2637 8.784H29.4677V5.76H42.3477C43.0197 5.76 43.6264 5.928 44.1677 6.264C44.7277 6.58133 45.1664 7.02 45.4837 7.58C45.8197 8.14 45.9877 8.74667 45.9877 9.4V22H33.1077ZM33.1917 18.976H42.9357V15.196H32.4917V18.276C32.4917 18.4627 32.5571 18.6307 32.6877 18.78C32.8371 18.9107 33.0051 18.976 33.1917 18.976ZM51.8629 22C51.1909 22 50.5842 21.832 50.0429 21.496C49.5016 21.16 49.0629 20.7213 48.7269 20.18C48.3909 19.6387 48.2229 19.032 48.2229 18.36V17.94H51.2469V18.276C51.2469 18.4627 51.3122 18.6307 51.4429 18.78C51.5922 18.9107 51.7602 18.976 51.9469 18.976H61.0189C61.2056 18.976 61.3642 18.9107 61.4949 18.78C61.6256 18.6307 61.6909 18.4627 61.6909 18.276V16.092C61.6909 15.9053 61.6256 15.7467 61.4949 15.616C61.3642 15.4667 61.2056 15.392 61.0189 15.392H51.8629C51.1909 15.392 50.5842 15.2333 50.0429 14.916C49.5016 14.58 49.0629 14.1413 48.7269 13.6C48.3909 13.04 48.2229 12.424 48.2229 11.752V9.4C48.2229 8.728 48.3909 8.12133 48.7269 7.58C49.0629 7.03867 49.5016 6.6 50.0429 6.264C50.5842 5.928 51.1909 5.76 51.8629 5.76H61.1029C61.7749 5.76 62.3816 5.928 62.9229 6.264C63.4829 6.6 63.9216 7.03867 64.2389 7.58C64.5749 8.12133 64.7429 8.728 64.7429 9.4V9.82H61.6909V9.484C61.6909 9.29733 61.6256 9.13867 61.4949 9.008C61.3642 8.85867 61.2056 8.784 61.0189 8.784H51.9469C51.7602 8.784 51.5922 8.85867 51.4429 9.008C51.3122 9.13867 51.2469 9.29733 51.2469 9.484V11.668C51.2469 11.8547 51.3122 12.0227 51.4429 12.172C51.5922 12.3027 51.7602 12.368 51.9469 12.368H61.1029C61.7749 12.368 62.3816 12.536 62.9229 12.872C63.4829 13.1893 63.9216 13.628 64.2389 14.188C64.5749 14.7293 64.7429 15.336 64.7429 16.008V18.36C64.7429 19.032 64.5749 19.6387 64.2389 20.18C63.9216 20.7213 63.4829 21.16 62.9229 21.496C62.3816 21.832 61.7749 22 61.1029 22H51.8629ZM67.5862 22V0.439999H70.6102V5.76H80.4662C81.1196 5.76 81.7169 5.928 82.2582 6.264C82.8182 6.6 83.2662 7.03867 83.6022 7.58C83.9382 8.12133 84.1062 8.728 84.1062 9.4V22H81.0822V9.484C81.0822 9.29733 81.0076 9.13867 80.8582 9.008C80.7276 8.85867 80.5689 8.784 80.3822 8.784H71.3102C71.1236 8.784 70.9556 8.85867 70.8062 9.008C70.6756 9.13867 70.6102 9.29733 70.6102 9.484V22H67.5862ZM86.4013 22V1.84H102.893C103.565 1.84 104.181 2.008 104.741 2.344C105.301 2.66133 105.74 3.1 106.057 3.66C106.393 4.20133 106.561 4.808 106.561 5.48V18.36C106.561 19.032 106.393 19.648 106.057 20.208C105.74 20.7493 105.301 21.188 104.741 21.524C104.181 21.8413 103.565 22 102.893 22H86.4013ZM90.0973 18.976H102.837C103.024 18.976 103.183 18.9107 103.313 18.78C103.444 18.6307 103.509 18.4627 103.509 18.276V5.564C103.509 5.37733 103.444 5.21867 103.313 5.088C103.183 4.93867 103.024 4.864 102.837 4.864H90.0973C89.9107 4.864 89.752 4.93867 89.6213 5.088C89.4907 5.21867 89.4253 5.37733 89.4253 5.564V18.276C89.4253 18.4627 89.4907 18.6307 89.6213 18.78C89.752 18.9107 89.9107 18.976 90.0973 18.976ZM109.753 22V5.48C109.753 4.808 109.912 4.20133 110.229 3.66C110.565 3.1 111.004 2.66133 111.545 2.344C112.105 2.008 112.721 1.84 113.393 1.84H126.245C126.917 1.84 127.533 2.008 128.093 2.344C128.653 2.66133 129.092 3.1 129.409 3.66C129.745 4.20133 129.913 4.808 129.913 5.48V22H126.861V14.944H112.777V22H109.753ZM112.777 11.92H126.861V5.564C126.861 5.37733 126.796 5.21867 126.665 5.088C126.534 4.93867 126.376 4.864 126.189 4.864H113.477C113.29 4.864 113.122 4.93867 112.973 5.088C112.842 5.21867 112.777 5.37733 112.777 5.564V11.92ZM136.687 22C136.015 22 135.399 21.8413 134.839 21.524C134.298 21.188 133.859 20.7493 133.523 20.208C133.206 19.648 133.047 19.032 133.047 18.36V5.48C133.047 4.808 133.206 4.20133 133.523 3.66C133.859 3.1 134.298 2.66133 134.839 2.344C135.399 2.008 136.015 1.84 136.687 1.84H149.567C150.22 1.84 150.827 2.008 151.387 2.344C151.947 2.66133 152.386 3.1 152.703 3.66C153.039 4.20133 153.207 4.808 153.207 5.48V18.36C153.207 19.032 153.039 19.648 152.703 20.208C152.386 20.7493 151.947 21.188 151.387 21.524C150.827 21.8413 150.22 22 149.567 22H136.687ZM136.771 18.976H149.483C149.67 18.976 149.828 18.9107 149.959 18.78C150.09 18.6307 150.155 18.4627 150.155 18.276V5.564C150.155 5.37733 150.09 5.21867 149.959 5.088C149.828 4.93867 149.67 4.864 149.483 4.864H136.771C136.584 4.864 136.416 4.93867 136.267 5.088C136.136 5.21867 136.071 5.37733 136.071 5.564V18.276C136.071 18.4627 136.136 18.6307 136.267 18.78C136.416 18.9107 136.584 18.976 136.771 18.976Z" fill="white"/>
</svg>
