<svg width="250" height="250" viewBox="0 0 250 250" fill="none" xmlns="http://www.w3.org/2000/svg">
<path d="M207.327 104.742L206.723 105.639L207.665 106.171C226.031 116.543 233.476 130.309 231.545 142.236C229.615 154.163 218.209 164.869 197.511 168.901L196.448 169.108L196.739 170.151C202.398 190.467 197.932 205.462 188.134 212.53C178.336 219.598 162.697 219.105 145.204 207.326L144.306 206.721L143.775 207.664C133.411 226.031 119.648 233.476 107.721 231.546C95.7945 229.615 85.0839 218.208 81.0438 197.509L80.8365 196.447L79.7939 196.737C59.4783 202.397 44.4825 197.93 37.4145 188.132C30.3465 178.334 30.8392 162.695 42.6189 145.203L43.2234 144.305L42.2808 143.773C23.9135 133.409 16.4681 119.647 18.3987 107.72C20.3294 95.7935 31.7365 85.083 52.4355 81.043L53.4978 80.8357L53.2072 79.793C47.5466 59.4858 52.0135 44.4944 61.8124 37.4265C71.6116 30.3585 87.2514 30.8477 104.743 42.6189L105.64 43.223L106.172 42.2807C116.536 23.9136 130.298 16.4683 142.225 18.399C154.152 20.3297 164.863 31.7367 168.903 52.4355L169.11 53.4976L170.152 53.2072C190.468 47.5479 205.464 52.0143 212.532 61.8124C219.6 71.6105 219.107 87.2493 207.327 104.742Z" fill="#8DD9B6" stroke="#26103D" stroke-width="2"/>
<path d="M183.901 105.988C168.07 117.065 158.377 126.336 153.28 137.755L151.038 181.645L150.044 181.755C150.044 181.756 150.044 181.758 150.044 181.759C150.111 182.374 149.973 182.994 149.65 183.522C149.327 184.051 148.838 184.458 148.258 184.679C147.679 184.901 147.042 184.924 146.449 184.745C145.856 184.566 145.34 184.196 144.98 183.693C133.904 167.872 124.627 158.171 113.201 153.065C101.774 147.958 88.3549 147.517 69.1707 149.815C68.5556 149.882 67.9356 149.744 67.4076 149.422C66.8784 149.099 66.4713 148.61 66.2502 148.031C66.0291 147.452 66.0063 146.816 66.1855 146.223C66.3644 145.631 66.7343 145.115 67.2376 144.755C83.0682 133.677 92.7752 124.401 97.8871 112.977C102.999 101.553 103.445 88.1381 101.152 68.9615C101.085 68.3469 101.223 67.7271 101.546 67.1989C101.869 66.6697 102.358 66.2624 102.938 66.041C103.517 65.8197 104.154 65.7968 104.747 65.9758C105.34 66.1545 105.856 66.5242 106.216 67.027C117.292 82.8478 126.554 92.5541 137.966 97.6662C149.378 102.779 162.784 103.226 181.968 100.927C182.583 100.86 183.203 100.998 183.731 101.32C184.26 101.643 184.667 102.132 184.889 102.711C185.11 103.29 185.133 103.926 184.953 104.519C184.774 105.111 184.404 105.628 183.901 105.988Z" fill="#928AFF" stroke="#26103D" stroke-width="2"/>
</svg>
