<svg width="145" height="110" viewBox="0 0 145 110" fill="none" xmlns="http://www.w3.org/2000/svg">
<path d="M65.2748 34.4412C55.5222 36.8866 48.9944 39.6137 44.3094 44.3048C39.6246 48.9957 36.9044 55.5282 34.4581 65.2753C34.4033 65.4822 34.2818 65.6655 34.1121 65.7966C33.9415 65.9284 33.7318 66 33.5159 66C33.3 66 33.0903 65.9284 32.9197 65.7966C32.7501 65.6655 32.6285 65.4822 32.5737 65.2753C30.1272 55.5273 27.3989 48.995 22.7059 44.3042C18.013 39.6135 11.4777 36.8866 1.72525 34.4413C1.51789 34.3864 1.33444 34.2648 1.20333 34.0953C1.0715 33.9248 1 33.7155 1 33.5C1 33.2846 1.0715 33.0752 1.20333 32.9047C1.33444 32.7352 1.51789 32.6136 1.72525 32.5588C11.4777 30.1134 18.013 27.3865 22.7059 22.6958C27.3989 18.0051 30.1272 11.4727 32.5737 1.7248C32.6285 1.51785 32.75 1.33457 32.9197 1.20346C33.0904 1.07159 33.3001 1 33.5159 1C33.7317 1 33.9414 1.07159 34.1121 1.20346C34.2818 1.33457 34.4034 1.51785 34.4581 1.7248C36.9044 11.4719 39.6246 18.0043 44.3094 22.6952C48.9944 27.3864 55.5222 30.1134 65.2748 32.5588C65.4822 32.6136 65.6656 32.7353 65.7967 32.9047C65.9285 33.0752 66 33.2846 66 33.5C66 33.7155 65.9285 33.9248 65.7967 34.0953C65.6656 34.2648 65.4822 34.3864 65.2748 34.4412Z" fill="#8DD9B6" stroke="#26103D" stroke-width="2"/>
<path d="M143.759 87.8143C137.196 89.46 132.739 91.309 129.528 94.525C126.316 97.7406 124.472 102.201 122.826 108.759C122.807 108.828 122.767 108.888 122.71 108.932C122.653 108.976 122.583 109 122.511 109C122.438 109 122.368 108.976 122.311 108.932C122.255 108.888 122.214 108.828 122.196 108.759C120.549 102.2 118.699 97.7398 115.482 94.5243C112.265 91.3089 107.804 89.46 101.241 87.8143C101.172 87.7957 101.111 87.7552 101.068 87.6989C101.024 87.642 101 87.572 101 87.5C101 87.428 101.024 87.3581 101.068 87.3011C101.111 87.2448 101.172 87.2043 101.241 87.1857C107.804 85.5401 112.265 83.6911 115.482 80.4757C118.699 77.2602 120.549 72.8003 122.196 66.2408C122.214 66.1724 122.255 66.1117 122.311 66.0681C122.368 66.024 122.438 66 122.511 66C122.583 66 122.653 66.024 122.71 66.0681C122.767 66.1117 122.807 66.1724 122.826 66.2408C124.472 72.7995 126.316 77.2595 129.528 80.4751C132.739 83.691 137.196 85.54 143.759 87.1857C143.828 87.2043 143.889 87.2449 143.932 87.3011C143.976 87.3581 144 87.428 144 87.5C144 87.572 143.976 87.642 143.932 87.6989C143.889 87.7552 143.828 87.7957 143.759 87.8143Z" fill="#928AFF" stroke="#26103D" stroke-width="2"/>
</svg>
