<svg width="199" height="199" viewBox="0 0 199 199" fill="none" xmlns="http://www.w3.org/2000/svg">
<path d="M73.2587 84.9966C71.6131 85.2691 69.9262 84.8875 68.556 83.9322L68.5384 83.9199L68.5213 83.9069C67.3774 83.034 66.6929 81.7661 66.2982 80.3969C65.9037 79.0283 65.7784 77.4915 65.8002 75.9766C65.8439 72.948 66.48 69.8276 66.9448 67.9257M73.2587 84.9966L94.9957 35.1134C95.5536 33.9129 96.0015 32.2427 96.4863 30.4347C97.7718 25.6407 99.3169 19.8784 103.862 19.338C111.223 18.4603 111.157 27.3378 109.257 31.8171C109.146 32.083 109.035 32.3486 108.924 32.6137C105.591 40.5786 102.444 48.1006 94.3594 52.4771M73.2587 84.9966C75.495 84.7622 77.2346 83.5089 78.5867 81.8102C79.9326 80.1193 80.9459 77.9279 81.7524 75.6635C82.5619 73.3908 83.1858 70.9774 83.7222 68.8129C83.7994 68.5012 83.8746 68.1957 83.9481 67.897C84.3924 66.0919 84.775 64.5376 85.1703 63.3938L85.1712 63.3912C86.0964 60.6894 87.2837 58.8836 88.814 57.4174C90.3679 55.9286 92.3107 54.7532 94.8393 53.3545M73.2587 84.9966L94.3594 52.4771M66.9448 67.9257C66.9449 67.9253 66.9451 67.9248 66.9452 67.9244L67.9166 68.1618M66.9448 67.9257C66.9448 67.926 66.9447 67.9262 66.9446 67.9265L67.9166 68.1618M66.9448 67.9257C68.7815 60.3423 72.8993 53.5104 78.7385 48.3594L78.7456 48.3532C80.077 47.2009 81.5423 46.1564 83.0122 45.148C83.4026 44.8801 83.7923 44.6155 84.1803 44.352C85.2672 43.614 86.3415 42.8845 87.3867 42.1147C90.2147 40.0319 92.6633 37.7689 94.0884 34.693L94.0889 34.6919C94.555 33.6888 94.9518 32.2895 95.3947 30.6438C95.4365 30.4886 95.4786 30.3315 95.5212 30.1729C95.9198 28.6857 96.356 27.0589 96.904 25.5245C98.0836 22.2214 99.9696 18.7938 103.744 18.345C105.791 18.101 107.446 18.5273 108.692 19.499C109.921 20.4565 110.634 21.8508 111.003 23.3266C111.731 26.2461 111.195 29.808 110.178 32.2061M67.9166 68.1618C67 71.9113 65.4522 80.307 69.1279 83.1119L79.4 49.1094C73.7147 54.1245 69.7049 60.7769 67.9166 68.1618ZM110.178 32.2061C110.178 32.2066 110.178 32.2071 110.178 32.2075L109.257 31.8172L110.179 32.2038C110.179 32.2045 110.179 32.2053 110.178 32.2061ZM110.178 32.2061C110.055 32.5012 109.931 32.7963 109.808 33.0914C106.509 40.9808 103.237 48.8063 94.8393 53.3545M94.8393 53.3545C94.8407 53.3537 94.8421 53.353 94.8434 53.3522L94.3594 52.4771M94.8393 53.3545C94.838 53.3552 94.8368 53.3559 94.8355 53.3566L94.3594 52.4771M57.0658 19.7095L57.0685 19.7077C64.3969 14.8276 72.1602 10.6414 80.2588 7.20304C119.399 -9.22937 162.297 9.02662 187.256 38.2015C201.431 63.636 201.647 98.108 187.505 127.137C174.211 154.35 149.492 176.445 117.886 189.311C101.05 196.129 85.4781 198.96 71.6012 197.714C59.8346 196.659 49.7581 191.337 41.6343 184.845C41.0538 184.378 40.5041 183.911 39.9426 183.433L39.9368 183.428C37.8737 181.698 35.9404 179.87 34.1149 178.061C32.0363 175.939 30.1386 173.788 28.4551 171.743L27.7926 170.938L27.5577 171.148C4.2368 144.411 -4.35483 111.994 4.2982 84.3993C12.7407 57.5951 34.2975 34.7633 57.0658 19.7095ZM19.3338 106.182C21.5766 105.733 23.7752 105.293 25.9272 105.077C25.8695 105.196 25.798 105.315 25.7144 105.441C25.6522 105.535 25.5705 105.647 25.4774 105.775C25.1769 106.187 24.7572 106.763 24.4879 107.418L24.4856 107.424C23.7936 109.137 23.481 110.981 23.5683 112.827C23.6699 116.641 24.8924 120.146 26.3078 123.305C34.6256 142.383 51.3043 156.924 72.2715 161.302L72.2732 161.303C84.7436 163.884 98.5836 162.971 111.679 158.255C118.304 155.895 124.559 152.595 130.253 148.455C130.758 148.095 131.201 147.745 131.58 147.445L131.595 147.433C131.99 147.121 132.293 146.882 132.557 146.707C132.801 146.546 132.937 146.491 133.001 146.474C133.185 146.623 133.333 146.813 133.434 147.029L133.442 147.046L133.45 147.063C133.914 147.973 134.158 148.864 134.428 149.844C134.53 150.217 134.636 150.603 134.759 151.008C135.186 152.413 135.791 153.884 137.192 155.18C137.559 155.58 138.037 155.863 138.565 155.994L138.585 156L138.606 156.004C139.303 156.146 139.942 155.928 140.424 155.665C140.91 155.4 141.344 155.032 141.691 154.696C145.587 150.996 147.973 145.975 148.389 140.609C149.417 137.325 148.507 134.02 146.831 131.333C145.138 128.619 142.589 126.404 140.14 125.291L140.131 125.287C139.175 124.865 137.094 123.967 134.957 123.41C133.891 123.132 132.764 122.927 131.73 122.924C130.717 122.922 129.638 123.114 128.829 123.796L128.824 123.801C127.776 124.696 127.411 125.879 127.42 127.071C127.429 128.226 127.785 129.437 128.216 130.545C128.585 131.497 129.04 132.445 129.44 133.281C129.509 133.425 129.576 133.565 129.641 133.701C130.111 134.688 130.424 135.403 130.515 135.871L130.521 135.901L130.529 135.932C130.628 136.312 130.644 136.71 130.577 137.098C130.473 137.576 130.066 138.089 129.415 138.763L129.406 138.773C122.846 145.745 114.402 148.567 105.823 151.435C104.74 151.797 103.655 152.16 102.571 152.531C93.8522 155.481 84.4459 155.696 75.6023 153.147L75.599 153.146C56.9159 147.83 42.748 133.169 35.8576 115.403L35.8567 115.401C35.369 114.152 34.6235 111.745 34.203 109.292C33.993 108.067 33.8691 106.859 33.8902 105.795C33.9116 104.713 34.082 103.875 34.3807 103.321L34.3828 103.317C34.9581 102.239 36.2838 101.612 37.8486 101.038L37.8554 101.035L37.8621 101.032C41.4596 99.6518 45.0428 98.3254 48.6368 97.0951L49.1537 96.9182L49.2841 96.3876C49.6551 94.8772 49.0993 93.6322 48.2249 92.7269C47.3828 91.8551 46.2198 91.2573 45.1735 90.8778C37.4475 88.0615 27.9752 88.8826 19.6975 92.9324L19.6901 92.9361C16.2178 94.6703 12.6893 97.1281 10.6418 100.677L10.6415 100.678C10.2601 101.34 9.91479 102.109 9.7483 102.897C9.5826 103.68 9.57654 104.573 9.99758 105.386L10.0029 105.396L10.0085 105.407C10.6254 106.533 11.7544 106.93 12.7627 107.043C13.7689 107.155 14.8668 107.014 15.7554 106.867L15.7637 106.866C16.9657 106.656 18.1559 106.418 19.3338 106.182ZM111.598 102.005C112.971 102.969 114.664 103.357 116.317 103.086C118.554 102.851 120.294 101.598 121.647 99.8992C122.993 98.2083 124.007 96.017 124.814 93.7526C125.624 91.4799 126.249 89.0665 126.785 86.902C126.863 86.5889 126.939 86.2821 127.012 85.9821C127.457 84.1787 127.839 82.6258 128.234 81.4827L128.237 81.4749C129.14 78.7888 130.325 76.9853 131.861 75.5218C133.421 74.0351 135.379 72.8626 137.92 71.483L137.922 71.4816C146.293 66.9046 149.574 59.057 152.899 51.1043C153.012 50.8338 153.125 50.5631 153.239 50.2925C154.446 47.4334 155.844 43.4058 153.635 39.9378L153.632 39.9343C152.357 37.9511 150.89 36.8123 149.277 36.5027C147.667 36.1938 146.15 36.757 144.872 37.6597C142.355 39.4379 140.356 42.8052 139.496 45.4047C139.172 46.3636 138.898 47.3474 138.633 48.2998C138.544 48.6182 138.456 48.9331 138.368 49.2423C138.01 50.4971 137.634 51.695 137.118 52.8337C135.712 55.8934 133.275 58.1382 130.444 60.2109C129.404 60.9721 128.335 61.6941 127.251 62.4259C126.854 62.6937 126.456 62.9628 126.056 63.2355C124.579 64.2438 123.103 65.2909 121.759 66.4504L121.758 66.4504L121.748 66.4593C115.923 71.6203 111.809 78.4469 109.957 86.0228C109.492 87.9268 108.865 91.0424 108.83 94.0662C108.813 95.5783 108.943 97.1118 109.341 98.4777C109.739 99.8442 110.425 101.109 111.566 101.981L111.582 101.993L111.598 102.005Z" fill="#8DD9B6" stroke="#26103D" stroke-width="2"/>
<path d="M11.2434 104.821C12.0262 106.262 14.1896 106.075 15.9449 105.782C19.707 105.085 23.6492 104.062 27.3734 103.86C27.5821 105.628 26.3248 106.214 25.7176 107.703C25.0788 109.298 24.791 111.014 24.8734 112.733C24.9683 116.383 26.1306 119.775 27.5253 122.912C35.7136 141.848 52.1235 156.259 72.7318 160.596C85.0048 163.157 98.6439 162.254 111.557 157.565C118.088 155.221 124.252 151.942 129.865 147.828C131.824 146.421 132.83 145.148 133.769 145.825C134.097 146.078 134.359 146.407 134.533 146.786C135.918 149.529 135.624 152.435 138.091 154.707C138.329 154.98 138.644 155.172 138.992 155.259C139.742 155.413 140.549 154.822 141.184 154.203C144.926 150.621 147.207 145.751 147.579 140.551C149.51 134.599 144.424 128.301 139.913 126.236C138.015 125.39 131.848 122.734 129.67 124.583C126.587 127.24 131.212 133.292 131.691 135.781C131.828 136.309 131.849 136.862 131.753 137.399C131.587 138.211 130.961 138.927 130.33 139.585C122.739 147.718 112.672 150.398 103.118 153.703C94.2141 156.74 84.6089 156.961 75.5782 154.337C56.5687 148.885 42.1987 133.864 35.2201 115.725C34.2001 113.093 32.1649 105.767 33.7969 102.717C34.5749 101.247 36.2779 100.512 37.796 99.95C41.3968 98.5569 44.9884 97.2167 48.5939 95.9725C49.1347 93.7532 47.0615 92.3218 45.1165 91.6108C37.6919 88.8823 28.5121 89.6605 20.4472 93.638C17.0504 95.3481 13.7296 97.7115 11.8272 101.036C11.1678 102.265 10.6884 103.74 11.2434 104.821Z" fill="#928AFF"/>
<path d="M68.1307 68.0309C67.2045 71.7916 65.6399 80.2125 69.3544 83.0259C70.5344 83.8427 71.9894 84.1641 73.405 83.9206C81.0835 83.1455 82.6718 68.4903 84.6107 62.921C86.5735 57.2322 89.736 55.1078 94.8518 52.2992C103.293 47.7635 106.408 39.8594 109.907 31.5772C111.826 27.0845 111.894 18.1804 104.455 19.0608C98.1299 19.8072 97.5541 30.4864 95.4953 34.8834C92.3999 41.5148 84.9369 44.4526 79.7347 48.9214C73.9896 53.9516 69.938 60.6239 68.1307 68.0309V68.0309Z" fill="#928AFF"/>
<path d="M111.101 86.0426C110.183 89.8063 108.671 98.21 112.346 101.026C113.515 101.842 114.956 102.164 116.358 101.921C123.965 101.145 125.543 86.4784 127.463 80.9047C129.365 75.2352 132.536 73.0852 137.627 70.3127C145.932 65.7589 149.036 57.8628 152.516 49.5357C153.742 46.6244 154.893 43.0618 152.991 40.069C148.237 32.6565 142.266 40.3755 140.631 45.3363C139.785 47.8454 139.31 50.4647 138.212 52.8924C135.183 59.5052 127.787 62.4022 122.581 66.9033C116.905 71.954 112.9 78.6325 111.101 86.0426Z" fill="#928AFF"/>
</svg>
